<svg xmlns="http://www.w3.org/2000/svg" version="1.1" xmlns:xlink="http://www.w3.org/1999/xlink" width="595.2755737304688" height="513.7450905224996"><svg id="SvgjsSvg1173" xmlns="http://www.w3.org/2000/svg" viewBox="0 0 595.27557373046875 513.745090522499595"><defs><style>.uuid-20316150-0193-4a98-9809-b4fdc3983509{fill:#ee2827;}.uuid-6c77726d-23f4-440f-925c-0e4cfd05e82b{fill:#f99e4b;}</style></defs><polygon class="uuid-20316150-0193-4a98-9809-b4fdc3983509" points="244.057719628895939 127.813850534085759 231.629640314791686 200.273505003729042 401.992468994469164 76.497762115893238 329.238847171318412 65.925835691457905 296.702253687529264 0 264.166233798579924 65.925835691457905 191.412611975425534 76.497762115893238 244.057719628895939 127.813850534085759"></polygon><polygon class="uuid-6c77726d-23f4-440f-925c-0e4cfd05e82b" points="119.46603808668533 175.334175124285139 103.148412188885231 142.271021580946581 86.830786291086042 175.334175124285139 50.343271576140978 180.636198991914171 76.745841882514469 206.372252098722129 70.513160393286853 242.712352940788151 103.148412188885231 225.554984202915875 135.783663984484519 242.712352940788151 129.550982495259632 206.372252098722129 155.953552801633123 180.636198991914171 119.46603808668533 175.334175124285139"></polygon><polygon class="uuid-6c77726d-23f4-440f-925c-0e4cfd05e82b" points="506.574868273644825 175.334175124285139 490.257242375846545 142.271021580946581 473.939042883206639 175.334175124285139 437.452101763097744 180.636198991914171 463.854672069472144 206.372252098722129 457.621416985408359 242.712352940788151 490.257242375846545 225.554984202915875 522.892494171444923 242.712352940788151 516.659812682217307 206.372252098722129 543.062382988591708 180.636198991914171 506.574868273644825 175.334175124285139"></polygon><path class="uuid-20316150-0193-4a98-9809-b4fdc3983509" d="M367.976000833505168,463.345319855001435c4.377102194397594,8.003081950893829,3.86029324705305,18.002273931468153.517956137015062,26.490043518881066-3.342337110045264,8.487195992574925-9.218816206044721,15.716498509549638-15.371194418212326,22.451362277794033-.456007894710638.499601102255838-.951020238275305.962492135002321-1.411616891678932,1.458364870823061h243.564428069839778l-195.157612660421364-313.471585518770553s-96.497006469298867,187.025758668820345-101.849793479924301,195.952328305857918c-5.506510426704153,9.181819339111826-12.991923038002824,20.407930674136878-2.558232969073288,28.911187322122714,1.707018232279552,1.391541072414839,3.692803554907186,2.400494389141386,5.732506792132881,3.231633306671938l40.054127405910549,16.319920277142955c10.209414488012044,4.159709751507762,21.188593246090022,8.984502715487906,26.479432014411941,18.656745639476867ZM399.422764128676135,331.343653422439274l25.168194219053476-18.501301438886912-24.226351498155054-34.851622242346821v-35.278376800417391l108.243081523263754,173.86835352059461-53.912178646451139-27.734457515832219-55.272745597711037,54.694275205491067,28.103852590289534-79.715055551662772-28.103852590289534-32.481815176939563Z"></path><path class="uuid-20316150-0193-4a98-9809-b4fdc3983509" d="M249.540712667319895,446.459261474612504c-5.014366057316693-3.204387551955733-8.913663753227411-7.368972859569112-10.498506285412986-13.524505843337465-1.093271757637012-4.244601787251668-.704374458750863-8.762521513912361.694049751698913-12.916495317056615,3.108884011742703-9.23831843046537,10.062000615127545-15.915249120264889,16.999056563103295-22.291042521099371,6.902640257807434-6.343672090014479,19.000902541146388-16.683866200658485,28.10041102127343-24.397856354153191-26.957810107731348-51.500785955419815-88.585412894763067-170.937857502880433-89.647136936411698-172.99562897744363-.009177517376884-.018068237338412-.030974121152212-.060227457793189-.030974121152212-.060227457793189L0,513.745090522499595h244.510285954591382c12.756175560358315,0,25.364363653005057-3.646629170601955,35.732090315784262-11.079271056978541,1.981770158776271-1.421368003895623,3.742706305648426-2.882027254061541,5.149734438638916-4.358460362222104,6.416231836780753-6.736297755332998,10.174425203008468-16.821815758743469,6.9485278446964-25.547914000560922-5.895981320426472-15.952819582029406-28.760045082804027-17.328013201615249-42.799925886391065-26.300183628125524ZM195.340015818304892,288.78090900078314l-18.376831359451899,25.288362337217222,13.745626652661485,38.327320151786807-10.479577655824869,69.97283405766575-45.717802817706797-25.699343037294966-60.829158775158248,41.454272400867922,121.657743955480328-195.412001970237725v46.068556059994989Z"></path><polygon class="uuid-6c77726d-23f4-440f-925c-0e4cfd05e82b" points="351.916492611957437 142.793279679227453 310.154773378933896 173.135012522620855 361.775440655103012 200.273505003729042 351.916492611957437 142.793279679227453"></polygon></svg><style>@media (prefers-color-scheme: light) { :root { filter: none; } }
@media (prefers-color-scheme: dark) { :root { filter: none; } }
</style></svg>