<?xml version="1.0" encoding="UTF-8"?><svg id="uuid-9de83fdf-9e22-467a-9d79-e95df637ad30" xmlns="http://www.w3.org/2000/svg" viewBox="0 0 669.111328125 678.32861328125"><defs><style>.uuid-ec6b1ef8-3048-4251-ae06-464ab3b9fb22{fill:#ff9f48;}.uuid-bf73aba9-4a80-4431-9ea3-bf8615d2f338{fill:#e24b3b;}.uuid-3a89557f-a0fe-47c4-b234-346a3ecaefca{fill:#f7f9fc;}</style></defs><polygon class="uuid-bf73aba9-4a80-4431-9ea3-bf8615d2f338" points="299.057186459685909 229.916648379210528 291.310057763945224 275.084872224399987 397.506898433770402 197.928411815048094 352.15542801745687 191.338328785963313 331.873518748190691 150.243005802599328 311.591967033211404 191.338328785963313 266.240496616896053 197.928411815048094 299.057186459685909 229.916648379210528"/><polygon class="uuid-ec6b1ef8-3048-4251-ae06-464ab3b9fb22" points="221.392105079747125 259.538769461576521 211.220400776594033 238.928625358570571 201.048696473440941 259.538769461576521 178.303953288255798 262.843822496102803 194.762177032425825 278.886568160960451 190.876992170287849 301.539419894870662 211.220400776594033 290.84425611829829 231.563809382900217 301.539419894870662 227.67862452076406 278.886568160960451 244.136848264934088 262.843822496102803 221.392105079747125 259.538769461576521"/><polygon class="uuid-ec6b1ef8-3048-4251-ae06-464ab3b9fb22" points="462.699056131510588 259.538769461576521 452.527351828357496 238.928625358570571 442.355289970917511 259.538769461576521 419.610904340017441 262.843822496102803 436.069128084187469 278.886568160960451 432.183585667764419 301.539419894870662 452.527351828357496 290.84425611829829 472.87076043466368 301.539419894870662 468.985575572525704 278.886568160960451 485.443799316695731 262.843822496102803 462.699056131510588 259.538769461576521"/><path class="uuid-bf73aba9-4a80-4431-9ea3-bf8615d2f338" d="m376.302499108889606,439.072496889937611c2.728496749768965,4.988776163165312,2.406340338871814,11.221841238555498.322871519467299,16.512750772650179-2.083468819408154,5.290551979809607-5.746612470484251,9.796987412344606-9.581739732702772,13.995211051105798-.28425565667203.311429782341293-.592825004730912.59997609043603-.879941095685354.909081769923432h151.827560982821524l-121.652839752798172-195.404668259217033s-60.152072494658569,116.583792652622833-63.488769083418447,122.148231214833686c-3.432521137172444,5.723550219092431-8.098604558013903,12.72142391035959-1.59469211164469,18.021987410151269,1.06408155252393.867426695705944,2.301934487615654,1.496364683236607,3.57339752550979,2.014460842377957l24.968015730075422,10.173134520293388c6.364108720888908,2.592983675705909,13.208055292410791,5.600551545010603,16.5061360183754,11.629810677881323Zm19.602556127534626-82.284146412288464l15.688766922587092-11.532913466611717-15.101662786417364-21.724998364018575v-21.991018752148193l67.474069145389876,108.382033683348709-33.606527258625647-17.288464794222818-34.454646022933957,34.094052526388623,17.518729753841399-49.690927997698964-17.518729753841399-20.247762835037065Z"/><path class="uuid-bf73aba9-4a80-4431-9ea3-bf8615d2f338" d="m302.475047871168499,428.546456290228889c-3.125739560537113-1.997477013834214-5.556393590797597-4.593499900964161-6.544316080589851-8.430593711751499-.681498467443816-2.645901709904138-.439076662130901-5.462178036668774.43264068499775-8.051586169522125,1.937944225361207-5.758769316174948,6.272217269610337-9.920879972140028,10.596478793877395-13.895274628413972,4.30280826715898-3.954371616307981,11.844343248954829-10.400002714202856,17.516584428130955-15.208571517669043-16.804336292167136-32.103369043970815-55.220326239968927-106.55528884065825-55.882159221730035-107.838014838534036-.005720868561184-.01126295998165-.019307931397634-.037543199938227-.019307931397634-.037543199938227l-121.652839752796353,195.404668259217033h152.41716799898677c7.95164974682848,0,15.811050488098772-2.273151367664468,22.273844191680837-6.906339794275482,1.235350055096205-.886019518533431,2.33304171042073-1.796531505597159,3.210122371825491-2.716876235501331,3.999602233374389-4.199117524472967,6.342297909495755-10.485994519774977,4.331412609968538-15.925467859337004-3.675300496770433-9.944299777815104-17.927771856020627-10.80153617639553-26.679628092953863-16.394400304274313Zm-33.786377064041517-98.289885208635496l-11.455324186741564,15.763674545319191,8.568430888666626,23.891598554715529-6.532516789182409,43.618047242041939-28.498506741369056-16.019862190609274-37.918274382911477,25.840805740059295,75.83619121153788-121.811415078249411v28.717151186722731Z"/><circle class="uuid-bf73aba9-4a80-4431-9ea3-bf8615d2f338" cx="73.22607875372023" cy="319.990830001453105" r="19.771321750110701"/><circle class="uuid-bf73aba9-4a80-4431-9ea3-bf8615d2f338" cx="590.521316296950317" cy="319.990830001453105" r="19.771321750110019"/><polygon class="uuid-ec6b1ef8-3048-4251-ae06-464ab3b9fb22" points="366.291694234041643 239.254178535173196 340.259239397159035 258.167906332419079 372.437337286721231 275.084872224399987 366.291694234041643 239.254178535173196"/><path class="uuid-3a89557f-a0fe-47c4-b234-346a3ecaefca" d="m94.0126953125,445.94384765625c-.939453125-1.85546875-2.34326171875-3.08984375-4.20458984375-3.7001953125-1.86474609375-.6103515625-3.72314453125-.4462890625-5.5791015625.494140625l-39.89697265625,20.201171875c-1.85546875.939453125-3.09033203125,2.3408203125-3.69970703125,4.2041015625-.61181640625,1.86328125-.4462890625,3.7236328125.49365234375,5.5791015625,2.6220703125,5.1796875,5.9208984375,9.873046875,9.896484375,14.078125l.76025390625.92578125-14.033203125,7.1064453125-.87646484375-.8681640625c-3.9755859375-4.205078125-7.2744140625-8.8984375-9.89697265625-14.0771484375l-2.58349609375-5.103515625c-2.15380859375-4.2529296875-2.4775390625-8.6787109375-.96875-13.279296875,1.5068359375-4.6015625,4.38720703125-7.9775390625,8.640625-10.130859375l50.103515625-25.3701171875c4.2509765625-2.15234375,8.67724609375-2.4765625,13.27978515625-.9677734375,4.599609375,1.5068359375,7.97705078125,4.38671875,10.13037109375,8.640625l2.583984375,5.1025390625c2.62255859375,5.1796875,4.33544921875,10.67578125,5.1416015625,16.4853515625l.1806640625,1.220703125-14.03369140625,7.10546875-.1806640625-1.2197265625c-.88232421875-5.771484375-2.634765625-11.248046875-5.25732421875-16.4267578125Z"/><path class="uuid-3a89557f-a0fe-47c4-b234-346a3ecaefca" d="m86.08544921875,538.90576171875l-12.43896484375,9.8388671875-9.43603515625-11.9287109375-9.83935546875-12.439453125,71.37109375-56.455078125,9.83935546875,12.439453125-58.93212890625,46.615234375,9.43603515625,11.9296875Z"/><path class="uuid-3a89557f-a0fe-47c4-b234-346a3ecaefca" d="m179.97314453125,541.32470703125c-2.29931640625,3.154296875-9.0869140625,14.56640625-20.361328125,34.2333984375-11.27734375,19.6669921875-17.455078125,30.7314453125-18.53515625,33.1962890625l-12.79736328125-10.2236328125c2.18798828125-4.6845703125,4.6005859375-9.5791015625,7.23876953125-14.68359375l-15.43798828125-12.333984375c-4.39794921875,3.6982421875-8.63916015625,7.1318359375-12.72314453125,10.3017578125l-12.69580078125-10.1435546875c2.1640625-1.5986328125,11.41015625-9.9072265625,27.7373046875-24.9296875,16.326171875-15.01953125,25.728515625-23.8720703125,28.20361328125-26.5537109375l-4.671875-3.732421875,9.8994140625-12.390625,32.9072265625,26.291015625-8.763671875,10.96875Zm-51.20849609375,22.650390625l12.18798828125,9.7373046875c8.205078125-14.8525390625,16.7373046875-28.447265625,25.59521484375-40.7841796875l-3.5546875-2.83984375c-10.07666015625,11.3623046875-21.48779296875,22.658203125-34.228515625,33.88671875Z"/><path class="uuid-3a89557f-a0fe-47c4-b234-346a3ecaefca" d="m214.919921875,581.23974609375c.0419921875.115234375.208984375,1.21484375.50146484375,3.2978515625.28955078125,2.0830078125.5751953125,4.283203125.857421875,6.599609375.27880859375,2.318359375.5390625,5.099609375.77685546875,8.3486328125s.38671875,6.2216796875.44921875,8.9140625c.0615234375,2.693359375-.0244140625,5.3427734375-.255859375,7.951171875-.23388671875,2.6064453125-.67138671875,4.62109375-1.31640625,6.041015625-1.21875,2.68359375-2.59814453125,4.984375-4.134765625,6.9033203125-1.5390625,1.919921875-2.9873046875,3.37890625-4.34521484375,4.3798828125-1.36083984375,1.001953125-2.95458984375,1.6806640625-4.78173828125,2.0400390625-1.830078125.3603515625-3.365234375.5419921875-4.60498046875.5498046875-1.2412109375.0078125-2.802734375-.2734375-4.685546875-.8427734375s-3.30712890625-1.048828125-4.271484375-1.4404296875c-.9658203125-.3896484375-2.27587890625-.9619140625-3.93310546875-1.71484375s-3.13232421875-1.8017578125-4.4228515625-3.1513671875c-1.29296875-1.34765625-2.29345703125-2.7060546875-3.0029296875-4.076171875-.7119140625-1.3701171875-1.3037109375-2.685546875-1.7763671875-3.9482421875-.47509765625-1.2626953125-.765625-2.2978515625-.8720703125-3.109375l-.2802734375-1.26953125,12.73583984375-9.4931640625c.04150390625.115234375.064453125.2216796875.06982421875.3173828125.0029296875.09765625.06103515625.337890625.17236328125.720703125.11083984375.3857421875.2021484375.7587890625.27490234375,1.125.06982421875.3662109375.22314453125.814453125.45751953125,1.349609375.232421875.5341796875.46435546875,1.0205078125.6943359375,1.4580078125.22900390625.4384765625.5458984375.890625.95263671875,1.3603515625.40478515625.4697265625.83642578125.8798828125,1.296875,1.2314453125.45849609375.3515625,1.01123046875.6513671875,1.66259765625.8984375.64794921875.2470703125,1.341796875.39453125,2.08154296875.4453125,1.70703125.0146484375,2.9990234375-.68359375,3.87841796875-2.09375.8759765625-1.4091796875,1.37451171875-3.3955078125,1.49365234375-5.9609375.1162109375-2.5634765625.0390625-5.4296875-.23388671875-8.6015625-.27392578125-3.1689453125-.60302734375-6.53125-.9873046875-10.0859375-.38525390625-3.552734375-.69580078125-6.955078125-.93359375-10.2041015625-.23779296875-3.25-.21826171875-6.3330078125.06201171875-9.2529296875.27734375-2.9189453125.83349609375-5.1904296875,1.66552734375-6.810546875.6865234375-1.3056640625,1.654296875-2.6513671875,2.90380859375-4.0361328125,1.24609375-1.3837890625,2.84326171875-2.7529296875,4.79150390625-4.10546875,1.94580078125-1.3515625,4.048828125-2.419921875,6.3095703125-3.203125,2.2578125-.78125,4.85498046875-1.1005859375,7.7890625-.958984375,2.93310546875.142578125,5.8984375.8935546875,8.89794921875,2.2568359375,2.91845703125,1.3251953125,5.25,3.00390625,6.9951171875,5.0322265625,1.74169921875,2.0302734375,2.8251953125,3.99609375,3.2451171875,5.900390625.42041015625,1.904296875.63330078125,3.7392578125.64208984375,5.5029296875.005859375,1.765625-.1259765625,3.15625-.39697265625,4.1748046875l-.58056640625,1.5927734375-11.73681640625,3.521484375c.03515625-.078125.06005859375-.1865234375.0751953125-.3232421875.01318359375-.13671875.0400390625-.4560546875.08056640625-.962890625.037109375-.5048828125.0478515625-1,.03173828125-1.484375-.01904296875-.4833984375-.09716796875-1.0439453125-.2373046875-1.6787109375s-.3271484375-1.21875-.56005859375-1.7529296875c-.234375-.53515625-.60400390625-1.08203125-1.1083984375-1.646484375-.50732421875-.5625-1.0751953125-.9873046875-1.70556640625-1.2744140625-2.81298828125-1.5625-5.38671875-1.13671875-7.71923828125,1.27734375-2.33544921875,2.4150390625-3.32177734375,5.8447265625-2.96142578125,10.2919921875Z"/><path class="uuid-3a89557f-a0fe-47c4-b234-346a3ecaefca" d="m273.66162109375,600.40673828125c.0654296875.1025390625.46728515625,1.140625,1.203125,3.1103515625.73388671875,1.9716796875,1.4892578125,4.0576171875,2.26611328125,6.2587890625.7744140625,2.2021484375,1.630859375,4.861328125,2.56640625,7.982421875.935546875,3.1201171875,1.724609375,5.990234375,2.3681640625,8.6044921875.64306640625,2.6171875,1.13330078125,5.2216796875,1.4716796875,7.8173828125.33642578125,2.595703125.34521484375,4.6572265625.02294921875,6.18359375-.60888671875,2.8837890625-1.45751953125,5.427734375-2.5419921875,7.634765625-1.0869140625,2.20703125-2.18505859375,3.9453125-3.2939453125,5.216796875-1.11181640625,1.2724609375-2.5205078125,2.2802734375-4.2265625,3.02734375-1.708984375.7470703125-3.16796875,1.2568359375-4.37646484375,1.533203125-1.21044921875.2763671875-2.79541015625.33984375-4.75732421875.19140625-1.96142578125-.1484375-3.45556640625-.3076171875-4.48193359375-.4814453125-1.02685546875-.1708984375-2.43017578125-.4462890625-4.2109375-.822265625s-3.4482421875-1.0810546875-5-2.119140625c-1.55419921875-1.0361328125-2.8251953125-2.14453125-3.814453125-3.330078125-.99169921875-1.1826171875-1.85400390625-2.3388671875-2.5888671875-3.4697265625-.7373046875-1.12890625-1.2451171875-2.0771484375-1.52490234375-2.845703125l-.54833984375-1.1787109375,10.37841796875-12.025390625c.0654296875.1025390625.11083984375.2021484375.13671875.294921875.02392578125.09375.1328125.31640625.32470703125.666015625.19140625.3515625.361328125.697265625.51123046875,1.0380859375.14794921875.3427734375.39453125.7470703125.7392578125,1.21875.3427734375.470703125.67431640625.896484375.99365234375,1.2724609375.318359375.37890625.7255859375.751953125,1.224609375,1.123046875.49658203125.3701171875,1.0068359375.677734375,1.5322265625.9208984375.52392578125.244140625,1.12890625.4169921875,1.81787109375.5166015625.6865234375.1015625,1.3955078125.095703125,2.12890625-.015625,1.66943359375-.35546875,2.77978515625-1.31640625,3.33251953125-2.8828125.55078125-1.5654296875.607421875-3.61328125.16796875-6.1435546875-.44189453125-2.5283203125-1.1376953125-5.3095703125-2.0908203125-8.3466796875-.953125-3.03515625-2.00244140625-6.24609375-3.1474609375-9.6328125-1.1455078125-3.3857421875-2.185546875-6.640625-3.12109375-9.7607421875-.93505859375-3.12109375-1.583984375-6.134765625-1.94287109375-9.046875-.361328125-2.91015625-.3095703125-5.2470703125.15185546875-7.009765625.3876953125-1.4228515625,1.04150390625-2.9462890625,1.9609375-4.568359375.91748046875-1.62109375,2.1796875-3.3037109375,3.7890625-5.0458984375,1.607421875-1.7412109375,3.4287109375-3.2392578125,5.46630859375-4.4921875,2.03515625-1.251953125,4.50146484375-2.126953125,7.396484375-2.6240234375,2.89501953125-.4951171875,5.9521484375-.404296875,9.17578125.2763671875,3.13623046875.6630859375,5.7763671875,1.796875,7.91845703125,3.3994140625,2.14013671875,1.6044921875,3.62353515625,3.2900390625,4.4462890625,5.0576171875.822265625,1.7685546875,1.427734375,3.513671875,1.81787109375,5.2333984375.38818359375,1.72265625.560546875,3.1083984375.5166015625,4.162109375l-.22216796875,1.6806640625-10.69580078125,5.978515625c.017578125-.0830078125.01806640625-.1953125.00341796875-.3310546875-.01708984375-.13671875-.0595703125-.455078125-.1298828125-.9580078125-.07275390625-.5009765625-.169921875-.986328125-.29052734375-1.4560546875-.123046875-.4677734375-.32080078125-.998046875-.5947265625-1.5869140625-.2744140625-.58984375-.583984375-1.1201171875-.9267578125-1.5908203125-.3447265625-.4716796875-.82373046875-.92578125-1.4384765625-1.3671875-.6171875-.439453125-1.26318359375-.7314453125-1.94091796875-.875-3.08447265625-.9169921875-5.50537109375.056640625-7.259765625,2.9189453125-1.7568359375,2.86328125-1.9775390625,6.4248046875-.66259765625,10.6884765625Z"/><path class="uuid-3a89557f-a0fe-47c4-b234-346a3ecaefca" d="m408.8408203125,563.82763671875l14.8359375,72.068359375c.9609375,4.669921875.109375,9.0263671875-2.552734375,13.068359375-2.6640625,4.044921875-6.330078125,6.5458984375-10.998046875,7.5068359375l-16.2978515625,3.3544921875c-4.6689453125.9619140625-9.025390625.1123046875-13.068359375-2.552734375-4.0439453125-2.6611328125-6.544921875-6.3271484375-7.505859375-10.9970703125l-14.8359375-72.068359375,15.5341796875-3.1982421875,13.708984375,66.59375c.296875,1.4443359375.96484375,2.6552734375,2.0087890625,3.634765625,1.0419921875.9794921875,2.26171875,1.63671875,3.6572265625,1.9677734375.865234375-.0888671875,2.65625-.4140625,5.3740234375-.9736328125,2.7158203125-.55859375,4.4892578125-.9677734375,5.3212890625-1.2275390625.7783203125-.5126953125,1.4375-1.1796875,1.9775390625-2,.5390625-.818359375.890625-1.6875,1.0556640625-2.6064453125.1640625-.9169921875.1513671875-1.84375-.041015625-2.779296875l-13.7080078125-66.59375,15.5341796875-3.197265625Z"/><path class="uuid-3a89557f-a0fe-47c4-b234-346a3ecaefca" d="m467.9599609375,536.11767578125l41.376953125,81.0498046875-14.009765625,7.15234375-5.9697265625-11.6943359375-26.6748046875-19.3701171875,19.3291015625,37.861328125-14.125,7.2119140625-41.3779296875-81.048828125,14.1259765625-7.2119140625,7.9208984375,15.515625,26.673828125,19.369140625-21.279296875-41.6826171875,14.009765625-7.15234375Z"/><path class="uuid-3a89557f-a0fe-47c4-b234-346a3ecaefca" d="m552.6318359375,585.59716796875l-12.4130859375,9.8720703125-56.6416015625-71.2236328125,12.4130859375-9.8720703125,56.6416015625,71.2236328125Z"/><path class="uuid-3a89557f-a0fe-47c4-b234-346a3ecaefca" d="m551.8935546875,482.86865234375l-10.12109375,11.52734375,54.412109375,47.775390625-10.46484375,11.91796875-54.412109375-47.775390625-10.03515625,11.4287109375-13.96875-12.265625,30.62109375-34.8740234375,13.96875,12.265625Z"/><path class="uuid-3a89557f-a0fe-47c4-b234-346a3ecaefca" d="m569.3720703125,414.43115234375l44.798828125,45.1552734375,3.3603515625,3.1005859375,6.435546875,3.40234375,16.4345703125,8.689453125-7.4130859375,14.0205078125-16.4345703125-8.6884765625-6.908203125-3.064453125-3.9814453125-1.3701171875-62.6025390625-11.482421875,7.4130859375-14.0205078125,40.5947265625,7.4931640625-29.0498046875-29.3291015625,7.3525390625-13.90625Z"/><path class="uuid-3a89557f-a0fe-47c4-b234-346a3ecaefca" d="m95.3876953125,120.384765625l71.39208984375,56.42822265625-9.75390625,12.3408203125-2.95751953125-2.337890625-33.93359375-11.576171875,17.9130859375,32.0546875,2.85546875,2.25732421875-9.83447265625,12.4423828125-71.39208984375-56.42822265625,9.83447265625-12.44287109375,39.673828125,31.35791015625-16.9951171875-31.32861328125,30.87353515625,9.15771484375-37.4296875-29.58447265625,9.75390625-12.3408203125Z"/><path class="uuid-3a89557f-a0fe-47c4-b234-346a3ecaefca" d="m193.908203125,68.603515625l29.35205078125,47.87939453125c2.49169921875,4.064453125,3.17236328125,8.4501953125,2.04296875,13.1572265625-1.1298828125,4.70947265625-3.72705078125,8.30810546875-7.78955078125,10.79833984375l-14.1865234375,8.697265625c-4.064453125,2.49169921875-8.44921875,3.173828125-13.1572265625,2.04296875-4.70849609375-1.12841796875-8.30712890625-3.7255859375-10.798828125-7.7900390625l-29.35205078125-47.87890625c-2.490234375-4.06298828125-3.17236328125-8.44775390625-2.04248046875-13.15771484375,1.12890625-4.70654296875,3.72509765625-8.306640625,7.78955078125-10.79833984375l14.1865234375-8.69677734375c4.0625-2.49072265625,8.44873046875-3.1708984375,13.1572265625-2.04296875,4.7080078125,1.130859375,8.30810546875,3.72705078125,10.79833984375,7.78955078125Zm12.60595703125,59.365234375c.7919921875-1.1953125,1.23095703125-2.50830078125,1.32275390625-3.9365234375.08984375-1.427734375-.27197265625-2.806640625-1.08740234375-4.13671875l-23.373046875-38.1259765625c-.54345703125-.88671875-1.1904296875-1.607421875-1.93798828125-2.16650390625-.74853515625-.55615234375-1.56982421875-.94384765625-2.46337890625-1.158203125-.89404296875-.21435546875-1.8017578125-.24169921875-2.72119140625-.08544921875-.82958984375.30615234375-2.46337890625,1.205078125-4.9013671875,2.69970703125-2.4384765625,1.49462890625-4.01904296875,2.56640625-4.74072265625,3.21142578125-.71826171875,1.15234375-1.10302734375,2.4296875-1.15625,3.83447265625-.0537109375,1.4052734375.30517578125,2.736328125,1.07470703125,3.9921875l23.373046875,38.1259765625c.54345703125.88623046875,1.189453125,1.6103515625,1.93798828125,2.16650390625.74755859375.55859375,1.5986328125.9521484375,2.552734375,1.17919921875.95361328125.23046875,1.890625.26611328125,2.810546875.107421875.783203125-.3779296875,2.35693359375-1.29296875,4.72265625-2.7431640625,2.36376953125-1.44921875,3.89306640625-2.4365234375,4.5869140625-2.96435546875Z"/><path class="uuid-3a89557f-a0fe-47c4-b234-346a3ecaefca" d="m291.12255859375,81.3583984375c3.494140625,3.30126953125,5.779296875,7.140625,6.8525390625,11.51708984375,1.689453125,6.72802734375,3.095703125,12.98486328125,4.2197265625,18.77197265625l-15.58837890625,2.970703125c-1.142578125-5.8720703125-2.48291015625-11.83349609375-4.01953125-17.8837890625-.76953125-3.02490234375-3.28955078125-5.34375-7.56103515625-6.96142578125-2.2568359375.24072265625-4.42236328125.2841796875-6.5.12890625l6.21533203125,27.64990234375-15.47412109375,3.47802734375-19.95703125-88.78466796875,26.2548828125-5.9013671875c4.98828125-1.12109375,9.658203125-.3056640625,14.0078125,2.44775390625,4.35009765625,2.7529296875,7.08544921875,6.62451171875,8.20703125,11.61279296875l4.78955078125,21.30810546875c.09521484375.42431640625.20166015625,1,.3212890625,1.7265625.1181640625.7294921875.30322265625,2.04296875.552734375,3.93994140625.24755859375,1.8994140625.35400390625,3.6513671875.31591796875,5.2587890625-.03857421875,1.607421875-.26708984375,3.2578125-.68603515625,4.95068359375-.4189453125,1.693359375-1.06884765625,2.951171875-1.95068359375,3.77001953125Zm-26.8447265625-10.35498046875c.646484375,2.87548828125,4.5439453125,3.82080078125,11.6962890625,2.833984375.86328125-.10498046875,1.52587890625-.52001953125,1.9853515625-1.24609375.39306640625-.62109375.50439453125-1.3125.33349609375-2.0732421875l-5.9873046875-26.6357421875c-.1142578125-.50732421875-.3251953125-.94677734375-.630859375-1.32373046875-.306640625-.37451171875-.6953125-.6201171875-1.1650390625-.7373046875-.47119140625-.11474609375-.958984375-.11767578125-1.46630859375-.00341796875l-10.78125,2.42333984375,6.015625,26.76220703125Z"/><path class="uuid-3a89557f-a0fe-47c4-b234-346a3ecaefca" d="m366.7021484375,112.67724609375l-12.896484375-37.5244140625-2.458984375-.2333984375-3.41015625,35.97900390625-15.7890625-1.49658203125,8.587890625-90.59423828125,15.7890625,1.49658203125-3.435546875,36.23779296875,18.8359375-34.77783203125,15.7890625,1.49658203125-22.76953125,41.84814453125.646484375.06103515625,16.90234375,49.00390625-15.791015625-1.49658203125Z"/><path class="uuid-3a89557f-a0fe-47c4-b234-346a3ecaefca" d="m421.5458984375,127.970703125l-14.8564453125-5.5517578125,31.8544921875-85.24267578125,14.8564453125,5.5517578125-31.8544921875,85.24267578125Z"/><path class="uuid-3a89557f-a0fe-47c4-b234-346a3ecaefca" d="m540.435546875,93.8671875l-53.091796875,73.9072265625-12.775390625-9.17724609375,7.66015625-10.66357421875,4.9990234375-32.583984375-24.80078125,34.525390625-12.880859375-9.2529296875,53.0908203125-73.9072265625,12.880859375,9.2529296875-10.1630859375,14.14794921875-4.9990234375,32.58349609375,27.3046875-38.00927734375,12.775390625,9.17724609375Z"/><path class="uuid-3a89557f-a0fe-47c4-b234-346a3ecaefca" d="m582.7265625,162.072265625c-.5634765625-.7705078125-1.2705078125-1.40625-2.1220703125-1.91015625-.8525390625-.50439453125-1.732421875-.8271484375-2.640625-.9677734375-.9091796875-.14111328125-1.8173828125-.095703125-2.71875.13671875-.9052734375.2314453125-1.7763671875.65478515625-2.6162109375,1.2685546875l-36.09375,26.40283203125c-1.1201171875.81884765625-1.9248046875,1.810546875-2.4150390625,2.97412109375-.4912109375,1.1650390625-.68359375,2.40576171875-.5771484375,3.724609375.103515625,1.318359375.576171875,2.4775390625,1.4150390625,3.47509765625l2.83984375,3.88232421875c.3564453125.48828125.7822265625.84912109375,1.2734375,1.0810546875.4912109375.22998046875,1.0361328125.314453125,1.6357421875.25341796875.59765625-.0625,1.107421875-.24658203125,1.52734375-.5537109375l27.7001953125-20.26220703125,8.3662109375,11.4365234375-34.9404296875,25.55859375c-2.7734375-.12060546875-6.6796875-.32373046875-11.7197265625-.6083984375-3.9794921875-3.53125-7.2734375-7.0810546875-9.8828125-10.64892578125-3.2236328125-4.40673828125-4.841796875-9.77392578125-4.8525390625-16.10107421875-.0126953125-6.32763671875,1.8720703125-10.8720703125,5.6494140625-13.63525390625l45.3271484375-33.15673828125c3.8466796875-2.8134765625,8.1611328125-3.8505859375,12.947265625-3.1083984375,4.783203125.74169921875,8.5830078125,3.03564453125,11.3974609375,6.88330078125l3.376953125,4.61669921875c3.427734375,4.685546875,6.009765625,9.83154296875,7.7470703125,15.43408203125l.3759765625,1.17431640625-12.80078125,9.36376953125-.3759765625-1.1748046875c-1.73828125-5.60205078125-4.3447265625-10.7822265625-7.8232421875-15.53857421875Z"/></svg>