<?xml version="1.0" encoding="UTF-8"?>
<svg id="uuid-9de83fdf-9e22-467a-9d79-e95df637ad30" xmlns="http://www.w3.org/2000/svg" version="1.1" viewBox="0 0 669.11 678.33">
  <!-- Generator: Adobe Illustrator 29.4.0, SVG Export Plug-In . SVG Version: 2.1.0 Build 152)  -->
  <defs>
    <style>
      .st0 {
        fill: #e24b3b;
      }

      .st1 {
        fill: #ff9f48;
      }

      .st2 {
        fill: #04334f;
      }
    </style>
  </defs>
  <polygon class="st0" points="299.06 229.92 291.31 275.08 397.51 197.93 352.16 191.34 331.87 150.24 311.59 191.34 266.24 197.93 299.06 229.92"/>
  <polygon class="st1" points="221.39 259.54 211.22 238.93 201.05 259.54 178.3 262.84 194.76 278.89 190.88 301.54 211.22 290.84 231.56 301.54 227.68 278.89 244.14 262.84 221.39 259.54"/>
  <polygon class="st1" points="462.7 259.54 452.53 238.93 442.36 259.54 419.61 262.84 436.07 278.89 432.18 301.54 452.53 290.84 472.87 301.54 468.99 278.89 485.44 262.84 462.7 259.54"/>
  <path class="st0" d="M376.3,439.07c2.73,4.99,2.41,11.22.32,16.51-2.08,5.29-5.75,9.8-9.58,14-.28.31-.59.6-.88.91h151.83l-121.65-195.4s-60.15,116.58-63.49,122.15c-3.43,5.72-8.1,12.72-1.59,18.02,1.06.87,2.3,1.5,3.57,2.01l24.97,10.17c6.36,2.59,13.21,5.6,16.51,11.63h0ZM395.91,356.79l15.69-11.53-15.1-21.73v-21.99l67.47,108.38-33.61-17.29-34.45,34.09,17.52-49.69-17.52-20.25h0Z"/>
  <path class="st0" d="M302.48,428.55c-3.13-2-5.56-4.59-6.54-8.43-.68-2.65-.44-5.46.43-8.05,1.94-5.76,6.27-9.92,10.6-13.9,4.3-3.95,11.84-10.4,17.52-15.21-16.8-32.1-55.22-106.56-55.88-107.84,0-.01-.02-.04-.02-.04l-121.65,195.4h152.42c7.95,0,15.81-2.27,22.27-6.91,1.24-.89,2.33-1.8,3.21-2.72,4-4.2,6.34-10.49,4.33-15.93-3.68-9.94-17.93-10.8-26.68-16.39h0ZM268.69,330.26l-11.46,15.76,8.57,23.89-6.53,43.62-28.5-16.02-37.92,25.84,75.84-121.81v28.72h0Z"/>
  <circle class="st0" cx="73.23" cy="319.99" r="19.77"/>
  <circle class="st0" cx="590.52" cy="319.99" r="19.77"/>
  <polygon class="st1" points="366.29 239.25 340.26 258.17 372.44 275.08 366.29 239.25"/>
  <path class="st2" d="M94.01,445.94c-.94-1.86-2.34-3.09-4.2-3.7-1.86-.61-3.72-.45-5.58.49l-39.9,20.2c-1.86.94-3.09,2.34-3.7,4.2-.61,1.86-.45,3.72.49,5.58,2.62,5.18,5.92,9.87,9.9,14.08l.76.93-14.03,7.11-.88-.87c-3.98-4.21-7.27-8.9-9.9-14.08l-2.58-5.1c-2.15-4.25-2.48-8.68-.97-13.28,1.51-4.6,4.39-7.98,8.64-10.13l50.1-25.37c4.25-2.15,8.68-2.48,13.28-.97,4.6,1.51,7.98,4.39,10.13,8.64l2.58,5.1c2.62,5.18,4.34,10.68,5.14,16.49l.18,1.22-14.03,7.11-.18-1.22c-.88-5.77-2.63-11.25-5.26-16.43Z"/>
  <path class="st2" d="M86.09,538.91l-12.44,9.84-9.44-11.93-9.84-12.44,71.37-56.46,9.84,12.44-58.93,46.62,9.44,11.93Z"/>
  <path class="st2" d="M179.97,541.32c-2.3,3.15-9.09,14.57-20.36,34.23-11.28,19.67-17.46,30.73-18.54,33.2l-12.8-10.22c2.19-4.68,4.6-9.58,7.24-14.68l-15.44-12.33c-4.4,3.7-8.64,7.13-12.72,10.3l-12.7-10.14c2.16-1.6,11.41-9.91,27.74-24.93,16.33-15.02,25.73-23.87,28.2-26.55l-4.67-3.73,9.9-12.39,32.91,26.29-8.76,10.97ZM128.76,563.98l12.19,9.74c8.21-14.85,16.74-28.45,25.6-40.78l-3.55-2.84c-10.08,11.36-21.49,22.66-34.23,33.89Z"/>
  <path class="st2" d="M214.92,581.24c.04.12.21,1.21.5,3.3.29,2.08.58,4.28.86,6.6.28,2.32.54,5.1.78,8.35s.39,6.22.45,8.91c.06,2.69-.02,5.34-.26,7.95-.23,2.61-.67,4.62-1.32,6.04-1.22,2.68-2.6,4.98-4.13,6.9-1.54,1.92-2.99,3.38-4.35,4.38-1.36,1-2.95,1.68-4.78,2.04-1.83.36-3.37.54-4.6.55-1.24,0-2.8-.27-4.69-.84s-3.31-1.05-4.27-1.44c-.97-.39-2.28-.96-3.93-1.71s-3.13-1.8-4.42-3.15c-1.29-1.35-2.29-2.71-3-4.08-.71-1.37-1.3-2.69-1.78-3.95-.48-1.26-.77-2.3-.87-3.11l-.28-1.27,12.74-9.49c.04.12.06.22.07.32,0,.1.06.34.17.72.11.39.2.76.27,1.12.07.37.22.81.46,1.35.23.53.46,1.02.69,1.46.23.44.55.89.95,1.36.4.47.84.88,1.3,1.23.46.35,1.01.65,1.66.9.65.25,1.34.39,2.08.45,1.71.01,3-.68,3.88-2.09.88-1.41,1.37-3.4,1.49-5.96.12-2.56.04-5.43-.23-8.6-.27-3.17-.6-6.53-.99-10.09-.39-3.55-.7-6.96-.93-10.2-.24-3.25-.22-6.33.06-9.25.28-2.92.83-5.19,1.67-6.81.69-1.31,1.65-2.65,2.9-4.04,1.25-1.38,2.84-2.75,4.79-4.11,1.95-1.35,4.05-2.42,6.31-3.2,2.26-.78,4.85-1.1,7.79-.96,2.93.14,5.9.89,8.9,2.26,2.92,1.33,5.25,3,7,5.03,1.74,2.03,2.83,4,3.25,5.9.42,1.9.63,3.74.64,5.5,0,1.77-.13,3.16-.4,4.17l-.58,1.59-11.74,3.52c.04-.08.06-.19.08-.32.01-.14.04-.46.08-.96.04-.5.05-1,.03-1.48-.02-.48-.1-1.04-.24-1.68s-.33-1.22-.56-1.75c-.23-.54-.6-1.08-1.11-1.65-.51-.56-1.08-.99-1.71-1.27-2.81-1.56-5.39-1.14-7.72,1.28-2.34,2.42-3.32,5.84-2.96,10.29Z"/>
  <path class="st2" d="M273.66,600.41c.07.1.47,1.14,1.2,3.11.73,1.97,1.49,4.06,2.27,6.26.77,2.2,1.63,4.86,2.57,7.98.94,3.12,1.72,5.99,2.37,8.6.64,2.62,1.13,5.22,1.47,7.82.34,2.6.35,4.66.02,6.18-.61,2.88-1.46,5.43-2.54,7.63-1.09,2.21-2.19,3.95-3.29,5.22-1.11,1.27-2.52,2.28-4.23,3.03-1.71.75-3.17,1.26-4.38,1.53-1.21.28-2.8.34-4.76.19-1.96-.15-3.46-.31-4.48-.48-1.03-.17-2.43-.45-4.21-.82s-3.45-1.08-5-2.12c-1.55-1.04-2.83-2.14-3.81-3.33-.99-1.18-1.85-2.34-2.59-3.47-.74-1.13-1.25-2.08-1.52-2.85l-.55-1.18,10.38-12.03c.07.1.11.2.14.29.02.09.13.32.32.67.19.35.36.7.51,1.04.15.34.39.75.74,1.22.34.47.67.9.99,1.27.32.38.73.75,1.22,1.12.5.37,1.01.68,1.53.92.52.24,1.13.42,1.82.52.69.1,1.4.1,2.13-.02,1.67-.36,2.78-1.32,3.33-2.88.55-1.57.61-3.61.17-6.14-.44-2.53-1.14-5.31-2.09-8.35-.95-3.04-2-6.25-3.15-9.63-1.15-3.39-2.19-6.64-3.12-9.76-.94-3.12-1.58-6.13-1.94-9.05-.36-2.91-.31-5.25.15-7.01.39-1.42,1.04-2.95,1.96-4.57.92-1.62,2.18-3.3,3.79-5.05,1.61-1.74,3.43-3.24,5.47-4.49,2.04-1.25,4.5-2.13,7.4-2.62,2.9-.5,5.95-.4,9.18.28,3.14.66,5.78,1.8,7.92,3.4,2.14,1.6,3.62,3.29,4.45,5.06.82,1.77,1.43,3.51,1.82,5.23.39,1.72.56,3.11.52,4.16l-.22,1.68-10.7,5.98c.02-.08.02-.2,0-.33-.02-.14-.06-.46-.13-.96-.07-.5-.17-.99-.29-1.46-.12-.47-.32-1-.59-1.59-.27-.59-.58-1.12-.93-1.59-.34-.47-.82-.93-1.44-1.37-.62-.44-1.26-.73-1.94-.88-3.08-.92-5.51.06-7.26,2.92-1.76,2.86-1.98,6.42-.66,10.69Z"/>
  <path class="st2" d="M408.84,563.83l14.84,72.07c.96,4.67.11,9.03-2.55,13.07-2.66,4.04-6.33,6.55-11,7.51l-16.3,3.35c-4.67.96-9.03.11-13.07-2.55-4.04-2.66-6.54-6.33-7.51-11l-14.84-72.07,15.53-3.2,13.71,66.59c.3,1.44.96,2.66,2.01,3.63,1.04.98,2.26,1.64,3.66,1.97.87-.09,2.66-.41,5.37-.97,2.72-.56,4.49-.97,5.32-1.23.78-.51,1.44-1.18,1.98-2,.54-.82.89-1.69,1.06-2.61.16-.92.15-1.84-.04-2.78l-13.71-66.59,15.53-3.2Z"/>
  <path class="st2" d="M467.96,536.12l41.38,81.05-14.01,7.15-5.97-11.69-26.67-19.37,19.33,37.86-14.12,7.21-41.38-81.05,14.13-7.21,7.92,15.52,26.67,19.37-21.28-41.68,14.01-7.15Z"/>
  <path class="st2" d="M552.63,585.6l-12.41,9.87-56.64-71.22,12.41-9.87,56.64,71.22Z"/>
  <path class="st2" d="M551.89,482.87l-10.12,11.53,54.41,47.78-10.46,11.92-54.41-47.78-10.04,11.43-13.97-12.27,30.62-34.87,13.97,12.27Z"/>
  <path class="st2" d="M569.37,414.43l44.8,45.16,3.36,3.1,6.44,3.4,16.43,8.69-7.41,14.02-16.43-8.69-6.91-3.06-3.98-1.37-62.6-11.48,7.41-14.02,40.59,7.49-29.05-29.33,7.35-13.91Z"/>
  <path class="st2" d="M95.39,120.38l71.39,56.43-9.75,12.34-2.96-2.34-33.93-11.58,17.91,32.05,2.86,2.26-9.83,12.44-71.39-56.43,9.83-12.44,39.67,31.36-17-31.33,30.87,9.16-37.43-29.58,9.75-12.34Z"/>
  <path class="st2" d="M193.91,68.6l29.35,47.88c2.49,4.06,3.17,8.45,2.04,13.16-1.13,4.71-3.73,8.31-7.79,10.8l-14.19,8.7c-4.06,2.49-8.45,3.17-13.16,2.04-4.71-1.13-8.31-3.73-10.8-7.79l-29.35-47.88c-2.49-4.06-3.17-8.45-2.04-13.16,1.13-4.71,3.73-8.31,7.79-10.8l14.19-8.7c4.06-2.49,8.45-3.17,13.16-2.04,4.71,1.13,8.31,3.73,10.8,7.79ZM206.51,127.97c.79-1.2,1.23-2.51,1.32-3.94.09-1.43-.27-2.81-1.09-4.14l-23.37-38.13c-.54-.89-1.19-1.61-1.94-2.17-.75-.56-1.57-.94-2.46-1.16-.89-.21-1.8-.24-2.72-.09-.83.31-2.46,1.21-4.9,2.7-2.44,1.49-4.02,2.57-4.74,3.21-.72,1.15-1.1,2.43-1.16,3.83-.05,1.41.31,2.74,1.07,3.99l23.37,38.13c.54.89,1.19,1.61,1.94,2.17.75.56,1.6.95,2.55,1.18.95.23,1.89.27,2.81.11.78-.38,2.36-1.29,4.72-2.74,2.36-1.45,3.89-2.44,4.59-2.96Z"/>
  <path class="st2" d="M291.12,81.36c3.49,3.3,5.78,7.14,6.85,11.52,1.69,6.73,3.1,12.98,4.22,18.77l-15.59,2.97c-1.14-5.87-2.48-11.83-4.02-17.88-.77-3.02-3.29-5.34-7.56-6.96-2.26.24-4.42.28-6.5.13l6.22,27.65-15.47,3.48-19.96-88.78,26.25-5.9c4.99-1.12,9.66-.31,14.01,2.45,4.35,2.75,7.09,6.62,8.21,11.61l4.79,21.31c.1.42.2,1,.32,1.73.12.73.3,2.04.55,3.94.25,1.9.35,3.65.32,5.26-.04,1.61-.27,3.26-.69,4.95-.42,1.69-1.07,2.95-1.95,3.77ZM264.28,71c.65,2.88,4.54,3.82,11.7,2.83.86-.1,1.53-.52,1.99-1.25.39-.62.5-1.31.33-2.07l-5.99-26.64c-.11-.51-.33-.95-.63-1.32-.31-.37-.7-.62-1.17-.74-.47-.11-.96-.12-1.47,0l-10.78,2.42,6.02,26.76Z"/>
  <path class="st2" d="M366.7,112.68l-12.9-37.52-2.46-.23-3.41,35.98-15.79-1.5,8.59-90.59,15.79,1.5-3.44,36.24,18.84-34.78,15.79,1.5-22.77,41.85.65.06,16.9,49-15.79-1.5Z"/>
  <path class="st2" d="M421.55,127.97l-14.86-5.55,31.85-85.24,14.86,5.55-31.85,85.24Z"/>
  <path class="st2" d="M540.44,93.87l-53.09,73.91-12.78-9.18,7.66-10.66,5-32.58-24.8,34.53-12.88-9.25,53.09-73.91,12.88,9.25-10.16,14.15-5,32.58,27.3-38.01,12.78,9.18Z"/>
  <path class="st2" d="M582.73,162.07c-.56-.77-1.27-1.41-2.12-1.91-.85-.5-1.73-.83-2.64-.97-.91-.14-1.82-.1-2.72.14-.91.23-1.78.65-2.62,1.27l-36.09,26.4c-1.12.82-1.92,1.81-2.42,2.97-.49,1.17-.68,2.41-.58,3.72.1,1.32.58,2.48,1.42,3.48l2.84,3.88c.36.49.78.85,1.27,1.08.49.23,1.04.31,1.64.25.6-.06,1.11-.25,1.53-.55l27.7-20.26,8.37,11.44-34.94,25.56c-2.77-.12-6.68-.32-11.72-.61-3.98-3.53-7.27-7.08-9.88-10.65-3.22-4.41-4.84-9.77-4.85-16.1-.01-6.33,1.87-10.87,5.65-13.64l45.33-33.16c3.85-2.81,8.16-3.85,12.95-3.11,4.78.74,8.58,3.04,11.4,6.88l3.38,4.62c3.43,4.69,6.01,9.83,7.75,15.43l.38,1.17-12.8,9.36-.38-1.17c-1.74-5.6-4.34-10.78-7.82-15.54Z"/>
</svg>